# xmcd
#
# Track frame offsets:
#	150
#	23365
#	45190
#	65692
#	83805
#	102387
#	123050
#	142977
#	167967
#	187317
#	207117
#	230597
#	246935
#	271362
#	300605
#
# Disc length: 4252 seconds
#
# Revision: 1
# Processed by: cddbd v1.5.1PL0 Copyright (c) Steve Scherf et al.
# Submitted via: CDex 1.50Beta5
#
DISCID=c9109a0f
DTITLE=Various Artist - Ballad 2
DYEAR=1900
DGENRE=Pop
TTITLE0=平松愛理/部屋とYシャツと私
TTITLE1=オリジナル ラブ/プライマル
TTITLE2=加藤いずみ/好きになって、よかった
TTITLE3=藤井フミヤ/Mother’sTouch
TTITLE4=崎谷健次郎/もう一度夜お止めて
TTITLE5=尾崎亜美/時に愛は
TTITLE6=研ナオコ/泣かせて
TTITLE7=チェッカ-ズ/Song for USA
TTITLE8=尾崎亜美/My Song for YOU
TTITLE9=真理子/あなたの海になりたい
TTITLE10=加藤いずみ/髪お切ってしまおう
TTITLE11=研ナオコ/夏おあきらめて
TTITLE12=チェッカ-ズ/夜明けのブレス
TTITLE13=平松愛理/戻れない道
TTITLE14=尾崎亜美/漂流者へ
EXTD=
EXTT0=
EXTT1=
EXTT2=
EXTT3=
EXTT4=
EXTT5=
EXTT6=
EXTT7=
EXTT8=
EXTT9=
EXTT10=
EXTT11=
EXTT12=
EXTT13=
EXTT14=
PLAYORDER=
